<svg xmlns="http://www.w3.org/2000/svg" viewBox="0 0 800 400" width="100%" height="100%">
  <defs>
    <!-- Glow Filter for Data Packets and Active States -->
    <filter id="glow" x="-20%" y="-20%" width="140%" height="140%">
      <feGaussianBlur stdDeviation="4" result="blur" />
      <feComposite in="SourceGraphic" in2="blur" operator="over" />
    </filter>
    
    <!-- SAP Blue Gradient -->
    <linearGradient id="sapBlue" x1="0%" y1="0%" x2="100%" y2="100%">
      <stop offset="0%" stop-color="#38bdf8" />
      <stop offset="100%" stop-color="#0284c7" />
    </linearGradient>
    
    <!-- Background Tech Grid -->
    <pattern id="grid" width="40" height="40" patternUnits="userSpaceOnUse">
      <path d="M 40 0 L 0 0 0 40" fill="none" stroke="#1e293b" stroke-width="1"/>
    </pattern>
  </defs>

  <!-- Background Base -->
  <rect width="100%" height="100%" fill="#0f172a" rx="12"/>
  <rect width="100%" height="100%" fill="url(#grid)" rx="12"/>

  <!-- Subtle ambient glows behind main components -->
  <circle cx="400" cy="200" r="90" fill="#8b5cf6" opacity="0.08" filter="url(#glow)"/>
  <circle cx="660" cy="200" r="140" fill="#0ea5e9" opacity="0.05" filter="url(#glow)"/>

  <!-- Titles -->
  <text x="100" y="45" fill="#f8fafc" font-family="sans-serif" font-size="18" font-weight="bold" text-anchor="start">Automating SAP HANA Cloud Workloads</text>
  <text x="100" y="65" fill="#94a3b8" font-family="sans-serif" font-size="13" text-anchor="start">Orchestrating databases efficiently using SAP Automation Pilot</text>

  <!-- ============================================== -->
  <!-- CONNECTION PATHS (Dashed Lines)                -->
  <!-- ============================================== -->
  <g fill="none" stroke="#334155" stroke-width="2" stroke-dasharray="4 4">
    <!-- User to AutoPi -->
    <path d="M 150 200 L 320 200" />
    <!-- AutoPi to DB 1 (Start/Stop) -->
    <path d="M 480 200 C 530 200, 540 90, 620 90" />
    <!-- AutoPi to DB 2 (Backup) -->
    <path d="M 480 200 C 530 200, 540 210, 620 210" />
    <!-- AutoPi to DB 3 (Scale) -->
    <path d="M 480 200 C 530 200, 540 330, 620 330" />
  </g>

  <!-- Connection Text Labels -->
  <text x="235" y="185" fill="#e2e8f0" font-family="sans-serif" font-size="12" font-weight="bold" text-anchor="middle">Execute Workflow</text>
  <text x="235" y="215" fill="#94a3b8" font-family="sans-serif" font-size="10" text-anchor="middle">API / Scheduler</text>


  <!-- ============================================== -->
  <!-- ANIMATED DATA PACKETS                          -->
  <!-- ============================================== -->
  
  <!-- Packet 1: User to AutoPi -->
  <circle r="5" fill="#38bdf8" filter="url(#glow)">
    <animateMotion dur="5s" repeatCount="indefinite" path="M 150 200 L 320 200" keyPoints="0;1;1" keyTimes="0;0.2;1" calcMode="linear"/>
    <animate attributeName="opacity" values="0;1;1;0;0" keyTimes="0;0.01;0.19;0.2;1" dur="5s" repeatCount="indefinite"/>
  </circle>

  <!-- Packet 2: AutoPi to DB 1 -->
  <circle r="5" fill="#a78bfa" filter="url(#glow)">
    <animateMotion dur="5s" repeatCount="indefinite" path="M 480 200 C 530 200, 540 90, 620 90" keyPoints="0;0;1;1" keyTimes="0;0.25;0.45;1" calcMode="linear"/>
    <animate attributeName="opacity" values="0;0;1;1;0;0" keyTimes="0;0.24;0.25;0.44;0.45;1" dur="5s" repeatCount="indefinite"/>
  </circle>

  <!-- Packet 3: AutoPi to DB 2 -->
  <circle r="5" fill="#a78bfa" filter="url(#glow)">
    <animateMotion dur="5s" repeatCount="indefinite" path="M 480 200 C 530 200, 540 210, 620 210" keyPoints="0;0;1;1" keyTimes="0;0.25;0.45;1" calcMode="linear"/>
    <animate attributeName="opacity" values="0;0;1;1;0;0" keyTimes="0;0.24;0.25;0.44;0.45;1" dur="5s" repeatCount="indefinite"/>
  </circle>

  <!-- Packet 4: AutoPi to DB 3 -->
  <circle r="5" fill="#a78bfa" filter="url(#glow)">
    <animateMotion dur="5s" repeatCount="indefinite" path="M 480 200 C 530 200, 540 330, 620 330" keyPoints="0;0;1;1" keyTimes="0;0.25;0.45;1" calcMode="linear"/>
    <animate attributeName="opacity" values="0;0;1;1;0;0" keyTimes="0;0.24;0.25;0.44;0.45;1" dur="5s" repeatCount="indefinite"/>
  </circle>


  <!-- ============================================== -->
  <!-- NODE 1: USER / DEVOPS                          -->
  <!-- ============================================== -->
  <g transform="translate(100, 200)">
    <rect x="-30" y="-20" width="60" height="40" rx="4" fill="#1e293b" stroke="#cbd5e1" stroke-width="2"/>
    <!-- Person Icon -->
    <g transform="translate(0, -2)">
      <!-- Head -->
      <circle cx="0" cy="-6" r="6" fill="none" stroke="#38bdf8" stroke-width="2"/>
      <!-- Body/Shoulders -->
      <path d="M -10 10 Q -10 3, -6 3 L -3 3 Q 0 3, 0 5 Q 0 3, 3 3 L 6 3 Q 10 3, 10 10"
            fill="none" stroke="#38bdf8" stroke-width="2" stroke-linecap="round" stroke-linejoin="round"/>
    </g>
    <text x="0" y="45" fill="#f8fafc" font-family="sans-serif" font-size="13" font-weight="bold" text-anchor="middle">DevOps / Admin</text>
  </g>


  <!-- ============================================== -->
  <!-- NODE 2: SAP AUTOMATION PILOT                   -->
  <!-- ============================================== -->
  <g transform="translate(400, 200)">
    <!-- Main Box with pulse effect -->
    <rect x="-70" y="-45" width="140" height="90" rx="12" fill="#0f172a" stroke="#8b5cf6" stroke-width="2">
      <animate attributeName="stroke" values="#8b5cf6;#8b5cf6;#d8b4fe;#8b5cf6;#8b5cf6" keyTimes="0;0.19;0.25;0.35;1" dur="5s" repeatCount="indefinite"/>
      <animate attributeName="stroke-width" values="2;2;4;2;2" keyTimes="0;0.19;0.25;0.35;1" dur="5s" repeatCount="indefinite"/>
    </rect>
    
    <!-- Automation Pilot Logo Icon -->
    <g transform="translate(0, -16)">
      <defs>
        <linearGradient id="apLogo0" x1="1.99008" y1="2.85702" x2="11.3367" y2="8.85798" gradientUnits="userSpaceOnUse">
          <stop stop-color="#0195FF"/>
          <stop offset="0.991028" stop-color="#1147E9"/>
        </linearGradient>
        <linearGradient id="apLogo1" x1="8.40832" y1="3.79682" x2="16.5056" y2="9.7828" gradientUnits="userSpaceOnUse">
          <stop stop-color="#1348FF"/>
          <stop offset="1" stop-color="#06238D"/>
        </linearGradient>
        <clipPath id="apClip">
          <rect width="16" height="16" fill="white" transform="matrix(-1 0 0 1 15.9995 0.00195312)"/>
        </clipPath>
      </defs>

      <g transform="translate(-20, -20) scale(2.5)" clip-path="url(#apClip)">
        <!-- Pulse animation for active state -->
        <g opacity="1">
          <animate attributeName="opacity" values="1;1;0.7;1;1" keyTimes="0;0.19;0.25;0.35;1" dur="5s" repeatCount="indefinite"/>
          <path d="M6.85703 0.661621H7.86059C8.20467 0.661621 8.52007 0.776313 8.8068 1.0057C9.07442 1.21597 9.2369 1.49314 9.29424 1.83722L9.49495 2.78343L9.99996 3.08878L9.54591 3.42704H9.15391C8.27025 3.42704 7.55391 4.14339 7.55391 5.02704C7.55391 5.04563 7.55423 5.06414 7.55486 5.08258C7.49473 5.07905 7.43416 5.07728 7.37315 5.07728C6.97173 5.07728 6.58942 5.15374 6.22623 5.30666C5.86304 5.45959 5.54763 5.66986 5.28002 5.93747C5.0124 6.20509 4.80213 6.51093 4.64921 6.85501C4.49629 7.2182 4.41983 7.60051 4.41983 8.00194C4.41983 8.40336 4.49629 8.77611 4.64921 9.12019C4.80213 9.48338 5.0124 9.79878 5.28002 10.0664C5.54763 10.334 5.86304 10.5443 6.22623 10.6972C6.58942 10.8501 6.97173 10.9266 7.37315 10.9266C7.4375 10.9266 7.50136 10.9246 7.56472 10.9207C7.55758 10.982 7.55391 11.0444 7.55391 11.1077C7.55391 11.9913 8.27026 12.7077 9.15391 12.7077H9.54591L9.903 12.9737L9.49495 13.2204L9.29424 14.1667C9.21778 14.5107 9.04574 14.7879 8.77813 14.9982C8.51051 15.2276 8.20467 15.3423 7.86059 15.3423H6.85703C6.51296 15.3423 6.20711 15.2276 5.9395 14.9982C5.67188 14.7879 5.49984 14.5107 5.42338 14.1667L5.25134 13.2204L3.98973 12.4749L3.12954 12.819C2.97662 12.8955 2.79502 12.9337 2.58475 12.9337C2.31713 12.9337 2.06864 12.8668 1.83925 12.733C1.59075 12.5992 1.3996 12.3985 1.26579 12.1309L0.749675 11.07C0.634983 10.8788 0.577637 10.659 0.577637 10.4105C0.577637 9.93259 0.778348 9.55028 1.17977 9.26355L1.86792 8.74744V7.25643L1.17977 6.76899C0.778348 6.46315 0.577637 6.07128 0.577637 5.59339C0.577637 5.36401 0.634983 5.14418 0.749675 4.93391L1.26579 3.87301C1.3996 3.60539 1.59075 3.40468 1.83925 3.27087C2.06864 3.13707 2.31713 3.07016 2.58475 3.07016C2.7759 3.07016 2.9575 3.09884 3.12954 3.15618L3.98973 3.52893L5.25134 2.78343L5.42338 1.83722C5.49984 1.49314 5.67188 1.21597 5.9395 1.0057C6.20711 0.776313 6.51296 0.661621 6.85703 0.661621Z" fill="url(#apLogo0)"/>
          <path fill-rule="evenodd" clip-rule="evenodd" d="M12.2838 3.32229C12.5353 2.56364 13.2504 2.01636 14.0934 2.01636C15.1461 2.01636 15.9994 2.8697 15.9994 3.92235C15.9994 4.975 15.1461 5.82834 14.0934 5.82834C13.2504 5.82834 12.5352 5.28099 12.2838 4.52228H11.8391L10.5427 5.48815C10.4218 5.57817 10.2752 5.6268 10.1245 5.6268H9.23514C8.90377 5.6268 8.63514 5.35817 8.63514 5.0268C8.63514 4.69543 8.90377 4.4268 9.23514 4.4268H9.95869L11.2552 3.46094C11.376 3.37091 11.5227 3.32229 11.6734 3.32229H12.2838ZM13.3875 3.92235C13.3875 3.53244 13.7035 3.21635 14.0934 3.21635C14.4834 3.21635 14.7994 3.53244 14.7994 3.92235C14.7994 4.31225 14.4834 4.62834 14.0934 4.62834C13.7035 4.62834 13.3875 4.31225 13.3875 3.92235Z" fill="url(#apLogo1)"/>
          <path fill-rule="evenodd" clip-rule="evenodd" d="M12.2838 12.8124C12.5353 13.5711 13.2504 14.1184 14.0934 14.1184C15.1461 14.1184 15.9994 13.265 15.9994 12.2124C15.9994 11.1597 15.1461 10.3064 14.0934 10.3064C13.2504 10.3064 12.5352 10.8537 12.2838 11.6124H11.8391L10.5426 10.6466C10.4218 10.5565 10.2751 10.5079 10.1244 10.5079H9.23513C8.90376 10.5079 8.63513 10.7765 8.63513 11.1079C8.63513 11.4393 8.90376 11.7079 9.23513 11.7079H9.95868L11.2552 12.6738C11.376 12.7638 11.5227 12.8124 11.6734 12.8124H12.2838ZM13.3874 12.2124C13.3874 12.6023 13.7035 12.9184 14.0934 12.9184C14.4833 12.9184 14.7994 12.6023 14.7994 12.2124C14.7994 11.8225 14.4833 11.5064 14.0934 11.5064C13.7035 11.5064 13.3874 11.8225 13.3874 12.2124Z" fill="url(#apLogo1)"/>
          <path fill-rule="evenodd" clip-rule="evenodd" d="M11.7664 6.16137C10.9234 6.16137 10.2082 6.70865 9.95677 7.4673H7.69131C7.35994 7.4673 7.09131 7.73592 7.09131 8.06729C7.09131 8.39866 7.35994 8.66729 7.69131 8.66729H9.95673C10.2081 9.426 10.9233 9.97335 11.7664 9.97335C12.819 9.97335 13.6724 9.12 13.6724 8.06736C13.6724 7.01471 12.819 6.16137 11.7664 6.16137ZM11.7664 7.36136C11.3765 7.36136 11.0604 7.67745 11.0604 8.06736C11.0604 8.45726 11.3765 8.77335 11.7664 8.77335C12.1563 8.77335 12.4724 8.45726 12.4724 8.06736C12.4724 7.67745 12.1563 7.36136 11.7664 7.36136Z" fill="url(#apLogo1)"/>
        </g>
      </g>
    </g>
    
    <text x="0" y="25" fill="#f8fafc" font-family="sans-serif" font-size="13" font-weight="bold" text-anchor="middle">Automation Pilot</text>
    <text x="0" y="38" fill="#a78bfa" font-family="sans-serif" font-size="10" font-weight="bold" text-anchor="middle">SAP BTP</text>
  </g>


  <!-- ============================================== -->
  <!-- TARGETS: HANA CLOUD DATABASES                  -->
  <!-- ============================================== -->

  <!-- SAP HANA Cloud Environment Boundary -->
  <g id="hana-cloud-boundary">
    <mask id="headerMask">
      <rect x="580" y="10" width="210" height="370" rx="12" fill="white"/>
    </mask>
    
    <!-- Background & Border -->
    <rect x="580" y="10" width="210" height="370" rx="12" fill="#0f172a" stroke="#0ea5e9" stroke-width="1.5" stroke-dasharray="4 4" opacity="0.3"/>
    <rect x="580" y="10" width="210" height="370" rx="12" fill="none" stroke="#0369a1" stroke-width="1"/>
    
    <!-- Header -->
    <rect x="580" y="10" width="210" height="40" fill="#082f49" mask="url(#headerMask)" opacity="0.9"/>
    <line x1="580" y1="50" x2="790" y2="50" stroke="#0369a1" stroke-width="1"/>

    <!-- HANA Cloud Logo -->
    <g transform="translate(590, 18)">
      <defs>
        <linearGradient id="hanaLogo0" x1="2.39845" y1="1.65497" x2="9.63519" y2="12.1351" gradientUnits="userSpaceOnUse">
          <stop stop-color="#0195FF"/>
          <stop offset="0.991028" stop-color="#1147E9"/>
        </linearGradient>
        <linearGradient id="hanaLogo1" x1="6.19063" y1="7.91088" x2="12.7405" y2="13.4628" gradientUnits="userSpaceOnUse">
          <stop stop-color="#1348FF"/>
          <stop offset="1" stop-color="#06238D"/>
        </linearGradient>
        <clipPath id="hanaClip">
          <rect width="15.9998" height="15.9999" fill="white" transform="translate(0 0.0020752)"/>
        </clipPath>
      </defs>
      <g transform="scale(1.5)" clip-path="url(#hanaClip)">
        <path d="M3.60436 4.79248C3.43151 2.49608 5.27176 0.00219727 7.90081 0.00219727C9.93738 0.00219727 11.4318 1.23678 12.1451 3.15283C14.1233 3.01464 15.9999 4.69737 15.9999 7.11356C15.9999 8.65032 15.2696 9.81745 14.2142 10.4711V8.42665C14.2142 8.35407 14.2075 8.29646 14.2055 8.2799C14.2025 8.25424 14.1992 8.23255 14.1969 8.21803C14.1921 8.18854 14.1869 8.1614 14.1826 8.14035C14.1738 8.09745 14.1628 8.04965 14.1508 8.00316C14.1411 7.96575 14.1211 7.89137 14.0915 7.8129L14.0906 7.81056C14.0854 7.79668 14.071 7.7583 14.0465 7.7072C13.7067 6.81933 12.905 6.23949 12.112 5.89399C11.2389 5.51362 10.161 5.31502 9.01071 5.31502C7.86141 5.31502 6.78375 5.51211 5.90998 5.89172C5.09562 6.24552 4.27486 6.84481 3.94738 7.7695C3.87564 7.93479 3.80719 8.15938 3.80719 8.4314V11.0543H3.26608C1.11266 11.0543 0 9.73192 0 7.88328C0 5.9432 1.41701 4.41207 3.60436 4.79248Z" fill="url(#hanaLogo0)"/>
        <path fill-rule="evenodd" clip-rule="evenodd" d="M9.01037 6.51514C11.0548 6.51514 12.6439 7.22667 12.9522 8.21332C12.9677 8.19789 13.0139 8.40062 13.0139 8.42678V13.953C13.0139 15.1199 11.292 16.0022 9.01037 16.0022C6.72873 16.0022 5.00684 15.1199 5.00684 13.953V8.43152C5.00684 8.35088 5.03055 8.27973 5.06376 8.21332C5.37683 7.22192 6.96591 6.51514 9.01037 6.51514ZM12.0652 8.56434C12.0652 8.12793 10.8461 7.46384 9.01037 7.46384C7.17463 7.46384 5.95554 8.12793 5.95554 8.56434C5.95554 9.00074 7.17463 9.66484 9.01037 9.66484C10.8461 9.66484 12.0652 9.00074 12.0652 8.56434ZM12.1805 11.0022C12.1805 10.6708 11.9119 10.4022 11.5805 10.4022C11.2491 10.4022 10.9805 10.6708 10.9805 11.0022V13.7751C10.9805 14.1065 11.2491 14.3751 11.5805 14.3751C11.9119 14.3751 12.1805 14.1065 12.1805 13.7751L12.1805 11.0022Z" fill="url(#hanaLogo1)"/>
      </g>
    </g>

    <text x="625" y="36" fill="#f0f9ff" font-family="sans-serif" font-size="14" font-weight="bold" text-anchor="start">HANA Cloud</text>
  </g>

  <!-- DB 1: Start/Stop -->
  <g transform="translate(660, 90)">
    <!-- Success Pulse Effect -->
    <circle cx="0" cy="0" r="35" fill="none" stroke="#0ea5e9" stroke-width="2" opacity="0">
      <animate attributeName="opacity" values="0;0;0.8;0;0" keyTimes="0;0.44;0.45;0.7;1" dur="5s" repeatCount="indefinite"/>
      <animate attributeName="r" values="35;35;35;55;55" keyTimes="0;0.44;0.45;0.7;1" dur="5s" repeatCount="indefinite"/>
    </circle>
    
    <!-- DB Body -->
    <path d="M -35 -20 L -35 20 A 35 12 0 0 0 35 20 L 35 -20 Z" fill="#1e293b" stroke="#0ea5e9" stroke-width="2">
      <animate attributeName="fill" values="#1e293b;#1e293b;#334155;#1e293b;#1e293b" keyTimes="0;0.44;0.45;0.7;1" dur="5s" repeatCount="indefinite"/>
    </path>
    <ellipse cx="0" cy="-20" rx="35" ry="12" fill="#0f172a" stroke="#0ea5e9" stroke-width="2"/>
    
    <!-- Power Icon -->
    <g transform="translate(0, 10)" opacity="0.6" stroke="#e2e8f0">
      <animate attributeName="opacity" values="0.6;0.6;1;0.6;0.6" keyTimes="0;0.44;0.45;0.7;1" dur="5s" repeatCount="indefinite"/>
      <animate attributeName="stroke" values="#e2e8f0;#e2e8f0;#38bdf8;#e2e8f0;#e2e8f0" keyTimes="0;0.44;0.45;0.7;1" dur="5s" repeatCount="indefinite"/>
      <path d="M 0 -6 L 0 2 M -4 -2 A 6 6 0 1 0 4 -2" fill="none" stroke-width="1.5" stroke-linecap="round"/>
    </g>

    <text x="50" y="3" fill="#38bdf8" font-family="sans-serif" font-size="12" font-weight="bold" text-anchor="start">
      Start / Stop
      <animate attributeName="fill" values="#38bdf8;#38bdf8;#bae6fd;#38bdf8;#38bdf8" keyTimes="0;0.44;0.45;0.7;1" dur="5s" repeatCount="indefinite"/>
    </text>
  </g>

  <!-- DB 2: Update HANA Cloud -->
  <g transform="translate(660, 210)">
    <!-- Success Pulse Effect -->
    <circle cx="0" cy="0" r="35" fill="none" stroke="#0ea5e9" stroke-width="2" opacity="0">
      <animate attributeName="opacity" values="0;0;0.8;0;0" keyTimes="0;0.44;0.45;0.7;1" dur="5s" repeatCount="indefinite"/>
      <animate attributeName="r" values="35;35;35;55;55" keyTimes="0;0.44;0.45;0.7;1" dur="5s" repeatCount="indefinite"/>
    </circle>

    <!-- DB Body -->
    <path d="M -35 -20 L -35 20 A 35 12 0 0 0 35 20 L 35 -20 Z" fill="#1e293b" stroke="#0ea5e9" stroke-width="2">
      <animate attributeName="fill" values="#1e293b;#1e293b;#334155;#1e293b;#1e293b" keyTimes="0;0.44;0.45;0.7;1" dur="5s" repeatCount="indefinite"/>
    </path>
    <ellipse cx="0" cy="-20" rx="35" ry="12" fill="#0f172a" stroke="#0ea5e9" stroke-width="2"/>

    <!-- Update/Refresh Icon -->
    <g transform="translate(0, 10)" opacity="0.6" stroke="#e2e8f0">
      <animate attributeName="opacity" values="0.6;0.6;1;0.6;0.6" keyTimes="0;0.44;0.45;0.7;1" dur="5s" repeatCount="indefinite"/>
      <animate attributeName="stroke" values="#e2e8f0;#e2e8f0;#38bdf8;#e2e8f0;#e2e8f0" keyTimes="0;0.44;0.45;0.7;1" dur="5s" repeatCount="indefinite"/>
      
      <path d="M 3.5 -3.5 A 5 5 0 1 1 -3.5 -3.5" fill="none" stroke-width="1.5" stroke-linecap="round"/>
      
      <path d="M -3.5 -1 L -3.5 -3.5 L -6 -3.5" fill="none" stroke-width="1.5" stroke-linecap="round" stroke-linejoin="round"/>
    </g>

    <text x="50" y="3" fill="#38bdf8" font-family="sans-serif" font-size="12" font-weight="bold" text-anchor="start">
      Update
      <animate attributeName="fill" values="#38bdf8;#38bdf8;#bae6fd;#38bdf8;#38bdf8" keyTimes="0;0.44;0.45;0.7;1" dur="5s" repeatCount="indefinite"/>
    </text>
  </g>

  <!-- DB 3: Scale Compute -->
  <g transform="translate(660, 330)">
    <!-- Success Pulse Effect -->
    <circle cx="0" cy="0" r="35" fill="none" stroke="#0ea5e9" stroke-width="2" opacity="0">
      <animate attributeName="opacity" values="0;0;0.8;0;0" keyTimes="0;0.44;0.45;0.7;1" dur="5s" repeatCount="indefinite"/>
      <animate attributeName="r" values="35;35;35;55;55" keyTimes="0;0.44;0.45;0.7;1" dur="5s" repeatCount="indefinite"/>
    </circle>

    <!-- DB Body -->
    <path d="M -35 -20 L -35 20 A 35 12 0 0 0 35 20 L 35 -20 Z" fill="#1e293b" stroke="#0ea5e9" stroke-width="2">
      <animate attributeName="fill" values="#1e293b;#1e293b;#334155;#1e293b;#1e293b" keyTimes="0;0.44;0.45;0.7;1" dur="5s" repeatCount="indefinite"/>
    </path>
    <ellipse cx="0" cy="-20" rx="35" ry="12" fill="#0f172a" stroke="#0ea5e9" stroke-width="2"/>
    
    <!-- Expand/Scale Icon -->
    <g transform="translate(0, 10)" opacity="0.6" stroke="#e2e8f0">
      <animate attributeName="opacity" values="0.6;0.6;1;0.6;0.6" keyTimes="0;0.44;0.45;0.7;1" dur="5s" repeatCount="indefinite"/>
      <animate attributeName="stroke" values="#e2e8f0;#e2e8f0;#38bdf8;#e2e8f0;#e2e8f0" keyTimes="0;0.44;0.45;0.7;1" dur="5s" repeatCount="indefinite"/>
      <path d="M -5 0 L 5 0 M -3 -2 L -5 0 L -3 2 M 3 -2 L 5 0 L 3 2" fill="none" stroke-width="1.5" stroke-linecap="round" stroke-linejoin="round"/>
    </g>

    <text x="50" y="3" fill="#38bdf8" font-family="sans-serif" font-size="12" font-weight="bold" text-anchor="start">
      Scale
      <animate attributeName="fill" values="#38bdf8;#38bdf8;#bae6fd;#38bdf8;#38bdf8" keyTimes="0;0.44;0.45;0.7;1" dur="5s" repeatCount="indefinite"/>
    </text>
  </g>

</svg>