<svg width="49" height="49" viewBox="0 0 49 49" fill="none" xmlns="http://www.w3.org/2000/svg">
<g clip-path="url(#clip0_2622_2883)">
<path fill-rule="evenodd" clip-rule="evenodd" d="M21.0726 46.0559H24.0833C25.1155 46.0559 26.0617 45.7118 26.9219 45.0237C27.7248 44.3929 28.2122 43.5613 28.3842 42.5291L28.9864 39.6905L30.1612 38.9801L29.0494 38.1518H27.8734C25.2224 38.1518 23.0734 36.0028 23.0734 33.3518C23.0734 33.164 23.0842 32.9786 23.1052 32.7964C22.9448 32.8047 22.7834 32.8089 22.6209 32.8089C21.4167 32.8089 20.2697 32.5795 19.1802 32.1207C18.0906 31.662 17.1444 31.0312 16.3415 30.2283C15.5387 29.4255 14.9079 28.5079 14.4491 27.4757C13.9903 26.3861 13.7609 25.2392 13.7609 24.0349C13.7609 22.8306 13.9903 21.7124 14.4491 20.6802C14.9079 19.5906 15.5387 18.6444 16.3415 17.8415C17.1444 17.0387 18.0906 16.4078 19.1802 15.9491C20.2697 15.4903 21.4167 15.2609 22.6209 15.2609C22.7736 15.2609 22.9253 15.2646 23.0761 15.272C23.0743 15.2181 23.0734 15.1641 23.0734 15.1098C23.0734 12.4589 25.2224 10.3098 27.8734 10.3098H29.0494L30.4515 9.26528L28.9864 8.37936L28.3842 5.54072C28.1549 4.50848 27.6387 3.67696 26.8359 3.04615C26.033 2.35799 25.1155 2.01392 24.0833 2.01392H21.0726C20.0404 2.01392 19.1228 2.35799 18.32 3.04615C17.5171 3.67696 17.001 4.50848 16.7716 5.54072L16.2555 8.37936L12.4707 10.6159L9.89008 9.58363C9.43131 9.35425 8.88652 9.23956 8.25571 9.23956C7.45286 9.23956 6.70736 9.44027 6.01921 9.84169C5.27371 10.2431 4.70024 10.8453 4.29882 11.6481L2.75047 14.8308C2.40639 15.4043 2.23435 16.0638 2.23435 16.8093C2.23435 18.2429 2.83649 19.3899 4.04076 20.2501L6.10522 21.7984V26.2714L4.04076 27.7338C2.83649 28.6513 2.23435 29.8269 2.23435 31.2606C2.23435 31.9487 2.40639 32.6082 2.75047 33.239L4.29882 36.4217C4.70024 37.2246 5.27371 37.8267 6.01921 38.2281C6.70736 38.6296 7.45286 38.8303 8.25571 38.8303C8.82917 38.8303 9.37396 38.7442 9.89008 38.5722L12.4707 37.454L16.2555 39.6905L16.7716 42.5291C17.001 43.5613 17.5171 44.3929 18.32 45.0237C19.1228 45.7118 20.0404 46.0559 21.0726 46.0559Z" fill="url(#paint0_radial_2622_2883)"/>
<path fill-rule="evenodd" clip-rule="evenodd" d="M37.2071 9.99629C37.9614 7.72034 40.1069 6.07849 42.6359 6.07849C45.7939 6.07849 48.3539 8.63852 48.3539 11.7965C48.3539 14.9544 45.7939 17.5145 42.6359 17.5145C40.1068 17.5145 37.9611 15.8724 37.2069 13.5963H35.873L31.9835 16.4939C31.621 16.764 31.181 16.9098 30.7289 16.9098H28.0609C27.0668 16.9098 26.2609 16.1039 26.2609 15.1098C26.2609 14.1157 27.0668 13.3098 28.0609 13.3098H30.2316L34.1211 10.4122C34.4836 10.1422 34.9236 9.99629 35.3757 9.99629H37.2071ZM40.5179 11.7965C40.5179 10.6267 41.4662 9.67849 42.6359 9.67849C43.8056 9.67849 44.7539 10.6267 44.7539 11.7965C44.7539 12.9662 43.8056 13.9145 42.6359 13.9145C41.4662 13.9145 40.5179 12.9662 40.5179 11.7965ZM37.2071 38.4654C37.9614 40.7413 40.1069 42.3832 42.6359 42.3832C45.7939 42.3832 48.3539 39.8232 48.3539 36.6652C48.3539 33.5072 45.7939 30.9472 42.6359 30.9472C40.1068 30.9472 37.9611 32.5892 37.2069 34.8654H35.873L31.9835 31.9678C31.621 31.6977 31.181 31.5518 30.7289 31.5518H28.0609C27.0668 31.5518 26.2609 32.3577 26.2609 33.3518C26.2609 34.3459 27.0668 35.1518 28.0609 35.1518H30.2316L34.1211 38.0494C34.4836 38.3195 34.9236 38.4654 35.3757 38.4654H37.2071ZM40.5179 36.6652C40.5179 37.8349 41.4662 38.7832 42.6359 38.7832C43.8056 38.7832 44.7539 37.8349 44.7539 36.6652C44.7539 35.4955 43.8056 34.5472 42.6359 34.5472C41.4662 34.5472 40.5179 35.4955 40.5179 36.6652ZM35.4021 29.9481C32.8731 29.9481 30.7276 28.3063 29.9733 26.0303H23.1769C22.1828 26.0303 21.3769 25.2244 21.3769 24.2303C21.3769 23.2362 22.1828 22.4303 23.1769 22.4303H29.9732C30.7274 20.1542 32.873 18.5122 35.4021 18.5122C38.5601 18.5122 41.1201 21.0722 41.1201 24.2301C41.1201 27.3881 38.5601 29.9481 35.4021 29.9481ZM35.4021 26.3481C34.2324 26.3481 33.2842 25.3999 33.2842 24.2301C33.2842 23.0604 34.2324 22.1122 35.4021 22.1122C36.5719 22.1122 37.5201 23.0604 37.5201 24.2301C37.5201 25.3999 36.5719 26.3481 35.4021 26.3481Z" fill="url(#paint1_radial_2622_2883)"/>
</g>
<defs>
<radialGradient id="paint0_radial_2622_2883" cx="0" cy="0" r="1" gradientUnits="userSpaceOnUse" gradientTransform="translate(26.0758 8.48058) rotate(122.359) scale(36.5008 62.3636)">
<stop stop-color="#0195FF"/>
<stop offset="1" stop-color="#1147E9"/>
</radialGradient>
<radialGradient id="paint1_radial_2622_2883" cx="0" cy="0" r="1" gradientUnits="userSpaceOnUse" gradientTransform="translate(44.1765 11.54) rotate(126.615) scale(31.5063 27.4895)">
<stop stop-color="#1348FF"/>
<stop offset="1" stop-color="#06238D"/>
</radialGradient>
<clipPath id="clip0_2622_2883">
<rect width="48" height="48" fill="white" transform="matrix(-1 0 0 1 48.5 0.0349121)"/>
</clipPath>
</defs>
</svg>
